<svg xmlns="http://www.w3.org/2000/svg" viewBox="0 0 720 996">
  <defs>
    <linearGradient id="sky" x1="0" y1="0" x2="0" y2="1">
      <stop offset="0" stop-color="#07358f"/>
      <stop offset=".45" stop-color="#102a6c"/>
      <stop offset="1" stop-color="#123b82"/>
    </linearGradient>
    <linearGradient id="river" x1="0" y1="0" x2="1" y2="1">
      <stop offset="0" stop-color="#0c68a6"/>
      <stop offset="1" stop-color="#1b9cc4"/>
    </linearGradient>
    <filter id="glow">
      <feDropShadow dx="0" dy="0" stdDeviation="5" flood-color="#ffd36a" flood-opacity=".75"/>
    </filter>
  </defs>
  <rect width="720" height="996" rx="26" fill="#c28b3d"/>
  <rect x="22" y="22" width="676" height="952" rx="16" fill="url(#sky)"/>
  <g opacity=".32" fill="#fff">
    <circle cx="92" cy="84" r="5"/><circle cx="188" cy="146" r="4"/><circle cx="582" cy="92" r="5"/>
    <circle cx="648" cy="178" r="3"/><circle cx="472" cy="134" r="4"/><circle cx="344" cy="72" r="3"/>
  </g>
  <path d="M22 603c150-54 285-42 408 19 88 44 178 44 268-12v364H22z" fill="url(#river)"/>
  <g opacity=".32" stroke="#fff" stroke-width="8" stroke-linecap="round">
    <path d="M65 692c90-27 166-21 232 16"/><path d="M390 720c66 22 138 15 218-21"/>
    <path d="M84 790c84-24 184-13 264 24"/>
  </g>
  <g transform="translate(46 326)">
    <g fill="#f5a35f" stroke="#fff4d6" stroke-width="4">
      <rect x="0" y="132" width="72" height="180"/><rect x="86" y="76" width="92" height="236"/>
      <rect x="195" y="118" width="76" height="194"/><rect x="291" y="42" width="94" height="270"/>
      <rect x="404" y="92" width="86" height="220"/><rect x="510" y="8" width="88" height="304"/>
    </g>
    <g stroke="#102a6c" stroke-width="5" opacity=".62">
      <path d="M16 166h42M16 205h42M102 112h56M102 150h56M102 188h56M309 78h58M309 118h58M309 158h58M528 46h54M528 88h54M528 130h54"/>
    </g>
  </g>
  <g transform="translate(152 130)" filter="url(#glow)">
    <path d="M172 0h28l10 150 52 37-38 33 60 438H88l60-438-38-33 52-37z" fill="#f36b93" stroke="#ffd7a1" stroke-width="8"/>
    <circle cx="186" cy="214" r="74" fill="none" stroke="#ffd7a1" stroke-width="12"/>
    <circle cx="186" cy="214" r="34" fill="#ffd7a1"/>
  </g>
  <text x="40" y="100" font-family="Georgia,serif" font-size="48" letter-spacing="7" fill="#f8fbff">TIMENEST</text>
  <text x="40" y="190" font-family="Arial Black,Arial,sans-serif" font-size="108" fill="#f8fbff">SHANGHAI</text>
  <text x="48" y="910" font-family="Arial Black,Arial,sans-serif" font-size="25" letter-spacing="4" fill="#f8fbff">CITY CARD · SHA · 699 COINS</text>
</svg>
